<svg version="1.1" xmlns="http://www.w3.org/2000/svg" viewBox="-8.48293005694442 -9.620494384520414 16.965860113888844 19.240988769040825" fill="none" stroke="black" stroke-width="0.6%" vector-effect="non-scaling-stroke">
    <path d="M 0.41382 -4.27194 A 5 1.91187 360 0 1 7.48293 -2.53145 A 5 1.91187 360 0 1 -2.51707 -2.53145 A 5 1.91187 360 0 1 0.41382 -4.27194 Z" />
    <path d="M -2.51707 6.70862 A 5 1.91187 180 0 0 7.48293 6.70862" />
    <path d="M -4.55204 -8.44911 A 5 1.91187 360 0 1 2.51707 -6.70862 A 5 1.91187 360 0 1 -7.48293 -6.70862 L -7.48293 2.53145 A 5 1.91187 180 0 0 -2.51707 4.44328" />
    <path d="M -7.48293 -6.70862 A 5 1.91187 360 0 1 -4.55204 -8.44911" />
    <path d="M -2.51707 -2.53145 L -2.51707 6.70862" />
    <path d="M 7.48293 -2.53145 L 7.48293 6.70862" />
    <path d="M 2.51707 -6.70862 L 2.51707 -4.44328" />
</svg>